<?xml version="1.0" encoding="UTF-8"?>
<svg width="100" height="100" version="1.1" viewBox="0 0 700 700" xmlns="http://www.w3.org/2000/svg" xmlns:xlink="http://www.w3.org/1999/xlink">
 <defs>
  <symbol id="t" overflow="visible">
   <path d="m3.6562-0.21875c-0.1875 0.09375-0.38672 0.16797-0.59375 0.21875-0.19922 0.050781-0.40625 0.078125-0.625 0.078125-0.66797 0-1.1992-0.17969-1.5938-0.54688-0.38672-0.375-0.57812-0.87891-0.57812-1.5156 0-0.64453 0.19141-1.1484 0.57812-1.5156 0.39453-0.375 0.92578-0.5625 1.5938-0.5625 0.21875 0 0.42578 0.027344 0.625 0.078125 0.20703 0.054687 0.40625 0.125 0.59375 0.21875v0.82812c-0.1875-0.125-0.375-0.21875-0.5625-0.28125-0.17969-0.0625-0.37109-0.09375-0.57812-0.09375-0.36719 0-0.65625 0.12109-0.875 0.35938-0.21094 0.23047-0.3125 0.55469-0.3125 0.96875 0 0.40625 0.10156 0.73047 0.3125 0.96875 0.21875 0.23047 0.50781 0.34375 0.875 0.34375 0.20703 0 0.39844-0.023437 0.57812-0.078125 0.1875-0.0625 0.375-0.16016 0.5625-0.29688z"/>
  </symbol>
  <symbol id="d" overflow="visible">
   <path d="m2.6875-2.1719c-0.085938-0.039063-0.16797-0.070313-0.25-0.09375-0.085938-0.019531-0.16797-0.03125-0.25-0.03125-0.25 0-0.44531 0.085937-0.57812 0.25-0.125 0.15625-0.1875 0.38281-0.1875 0.67188v1.375h-0.96875v-2.9844h0.96875v0.48438c0.11328-0.19531 0.25-0.33594 0.40625-0.42188 0.16406-0.09375 0.35938-0.14062 0.57812-0.14062h0.10938c0.039063 0 0.09375 0.007812 0.15625 0.015625z"/>
  </symbol>
  <symbol id="a" overflow="visible">
   <path d="m3.4375-1.5v0.26562h-2.2344c0.03125 0.23047 0.11328 0.40234 0.25 0.51562 0.13281 0.10547 0.32812 0.15625 0.57812 0.15625 0.20703 0 0.41406-0.023438 0.625-0.078125 0.20703-0.0625 0.42188-0.15625 0.64062-0.28125v0.73438c-0.21875 0.09375-0.44531 0.16406-0.67188 0.20312-0.23047 0.039062-0.45312 0.0625-0.67188 0.0625-0.54297 0-0.96484-0.13281-1.2656-0.40625-0.30469-0.28125-0.45312-0.67188-0.45312-1.1719 0-0.47656 0.14453-0.85938 0.4375-1.1406 0.30078-0.28125 0.70703-0.42188 1.2188-0.42188 0.46875 0 0.84375 0.14062 1.125 0.42188s0.42188 0.66406 0.42188 1.1406zm-0.96875-0.32812c0-0.17578-0.058594-0.31641-0.17188-0.42188-0.10547-0.11328-0.24219-0.17188-0.40625-0.17188-0.1875 0-0.33984 0.054687-0.45312 0.15625-0.11719 0.10547-0.1875 0.25-0.21875 0.4375z"/>
  </symbol>
  <symbol id="k" overflow="visible">
   <path d="m1.7969-1.3438c-0.19922 0-0.35156 0.039062-0.45312 0.10938-0.09375 0.0625-0.14062 0.16406-0.14062 0.29688 0 0.11719 0.035156 0.21094 0.10938 0.28125 0.082031 0.0625 0.19531 0.09375 0.34375 0.09375 0.17578 0 0.32812-0.0625 0.45312-0.1875s0.1875-0.28516 0.1875-0.48438v-0.10938zm1.4688-0.35938v1.7031h-0.96875v-0.4375c-0.125 0.17969-0.27344 0.30859-0.4375 0.39062-0.15625 0.082031-0.35156 0.125-0.57812 0.125-0.3125 0-0.57031-0.085938-0.76562-0.26562-0.1875-0.1875-0.28125-0.42188-0.28125-0.70312 0-0.35156 0.11719-0.61328 0.35938-0.78125 0.23828-0.16406 0.61719-0.25 1.1406-0.25h0.5625v-0.0625c0-0.15625-0.0625-0.26562-0.1875-0.32812-0.11719-0.070312-0.29688-0.10938-0.54688-0.10938-0.21094 0-0.40234 0.023437-0.57812 0.0625-0.17969 0.042969-0.33984 0.10156-0.48438 0.17188v-0.71875c0.19531-0.050781 0.39844-0.085938 0.60938-0.10938 0.20703-0.03125 0.41406-0.046875 0.625-0.046875 0.53906 0 0.92969 0.10938 1.1719 0.32812 0.23828 0.21094 0.35938 0.55469 0.35938 1.0312z"/>
  </symbol>
  <symbol id="c" overflow="visible">
   <path d="m1.5-3.8438v0.85938h0.98438v0.67188h-0.98438v1.2812c0 0.13672 0.023438 0.23047 0.078125 0.28125 0.0625 0.042969 0.17578 0.0625 0.34375 0.0625h0.48438v0.6875h-0.8125c-0.38672 0-0.65625-0.078125-0.8125-0.23438s-0.23438-0.42188-0.23438-0.79688v-1.2812h-0.46875v-0.67188h0.46875v-0.85938z"/>
  </symbol>
  <symbol id="j" overflow="visible">
   <path d="m2.5-2.5469v-1.6094h0.95312v4.1562h-0.95312v-0.4375c-0.13672 0.17969-0.28125 0.30859-0.4375 0.39062-0.15625 0.082031-0.33984 0.125-0.54688 0.125-0.375 0-0.68359-0.14453-0.92188-0.4375-0.23047-0.28906-0.34375-0.67188-0.34375-1.1406 0-0.45703 0.11328-0.83203 0.34375-1.125 0.23828-0.28906 0.54688-0.4375 0.92188-0.4375 0.19531 0 0.375 0.042969 0.53125 0.125 0.16406 0.085938 0.31641 0.21484 0.45312 0.39062zm-0.64062 1.9375c0.20703 0 0.36328-0.070313 0.46875-0.21875 0.11328-0.15625 0.17188-0.37891 0.17188-0.67188 0-0.28125-0.058594-0.49219-0.17188-0.64062-0.10547-0.15625-0.26172-0.23438-0.46875-0.23438-0.19922 0-0.35547 0.078125-0.46875 0.23438-0.10547 0.14844-0.15625 0.35938-0.15625 0.64062 0 0.29297 0.050781 0.51562 0.15625 0.67188 0.11328 0.14844 0.26953 0.21875 0.46875 0.21875z"/>
  </symbol>
  <symbol id="i" overflow="visible">
   <path d="m2.0469-0.60938c0.20703 0 0.36328-0.070313 0.46875-0.21875 0.11328-0.15625 0.17188-0.37891 0.17188-0.67188 0-0.28125-0.058594-0.49219-0.17188-0.64062-0.10547-0.15625-0.26172-0.23438-0.46875-0.23438-0.19922 0-0.35547 0.078125-0.46875 0.23438-0.10547 0.14844-0.15625 0.35938-0.15625 0.64062 0 0.29297 0.050781 0.51562 0.15625 0.67188 0.11328 0.14844 0.26953 0.21875 0.46875 0.21875zm-0.625-1.9375c0.125-0.17578 0.26562-0.30469 0.42188-0.39062 0.16406-0.082031 0.35156-0.125 0.5625-0.125 0.36328 0 0.66406 0.14844 0.90625 0.4375 0.23828 0.29297 0.35938 0.66797 0.35938 1.125 0 0.46875-0.12109 0.85156-0.35938 1.1406-0.24219 0.29297-0.54297 0.4375-0.90625 0.4375-0.21094 0-0.39844-0.042969-0.5625-0.125-0.15625-0.082031-0.29688-0.21094-0.42188-0.39062v0.4375h-0.96875v-4.1562h0.96875z"/>
  </symbol>
  <symbol id="h" overflow="visible">
   <path d="m0.0625-2.9844h0.95312l0.8125 2.0156 0.6875-2.0156h0.95312l-1.2656 3.2656c-0.125 0.33203-0.27344 0.56641-0.4375 0.70312-0.16797 0.13281-0.39062 0.20312-0.67188 0.20312h-0.54688v-0.64062h0.29688c0.16406 0 0.28516-0.027344 0.35938-0.078125 0.070313-0.054688 0.12891-0.14062 0.17188-0.26562l0.03125-0.09375z"/>
  </symbol>
  <symbol id="e" overflow="visible">
   <path d="m3.2344-2.5c0.11328-0.17578 0.25391-0.3125 0.42188-0.40625 0.16406-0.10156 0.35156-0.15625 0.5625-0.15625 0.33203 0 0.58594 0.10938 0.76562 0.32812 0.1875 0.21094 0.28125 0.51172 0.28125 0.90625v1.8281h-0.96875v-1.5625c0.007813-0.019531 0.015625-0.039062 0.015625-0.0625v-0.10938c0-0.21875-0.03125-0.375-0.09375-0.46875s-0.16406-0.14062-0.29688-0.14062c-0.1875 0-0.33594 0.078125-0.4375 0.23438-0.09375 0.14844-0.14062 0.35938-0.14062 0.64062v1.4688h-0.96875v-1.5625c0-0.33203-0.03125-0.54688-0.09375-0.64062-0.054688-0.09375-0.15234-0.14062-0.29688-0.14062-0.17969 0-0.32031 0.078125-0.42188 0.23438-0.09375 0.14844-0.14062 0.35938-0.14062 0.64062v1.4688h-0.96875v-2.9844h0.96875v0.4375c0.11328-0.17578 0.24219-0.30469 0.39062-0.39062 0.15625-0.082031 0.32812-0.125 0.51562-0.125 0.20703 0 0.39062 0.054688 0.54688 0.15625 0.15625 0.09375 0.27344 0.23047 0.35938 0.40625z"/>
  </symbol>
  <symbol id="b" overflow="visible">
   <path d="m1.875-2.375c-0.21094 0-0.37109 0.078125-0.48438 0.23438-0.10547 0.14844-0.15625 0.35938-0.15625 0.64062 0 0.29297 0.050781 0.51562 0.15625 0.67188 0.11328 0.14844 0.27344 0.21875 0.48438 0.21875 0.20703 0 0.36719-0.070313 0.48438-0.21875 0.11328-0.15625 0.17188-0.37891 0.17188-0.67188 0-0.28125-0.058594-0.49219-0.17188-0.64062-0.11719-0.15625-0.27734-0.23438-0.48438-0.23438zm0-0.6875c0.51953 0 0.92188 0.14062 1.2031 0.42188 0.28906 0.27344 0.4375 0.65234 0.4375 1.1406 0 0.5-0.14844 0.89062-0.4375 1.1719-0.28125 0.27344-0.68359 0.40625-1.2031 0.40625-0.51172 0-0.91406-0.13281-1.2031-0.40625-0.29297-0.28125-0.4375-0.67188-0.4375-1.1719 0-0.48828 0.14453-0.86719 0.4375-1.1406 0.28906-0.28125 0.69141-0.42188 1.2031-0.42188z"/>
  </symbol>
  <symbol id="g" overflow="visible">
   <path d="m3.4688-1.8281v1.8281h-0.96875v-1.3906c0-0.25781-0.007812-0.4375-0.015625-0.53125-0.011719-0.10156-0.03125-0.17578-0.0625-0.21875-0.03125-0.0625-0.085937-0.10938-0.15625-0.14062-0.0625-0.039062-0.13281-0.0625-0.20312-0.0625-0.21094 0-0.37109 0.078125-0.48438 0.23438-0.10547 0.15625-0.15625 0.37109-0.15625 0.64062v1.4688h-0.96875v-2.9844h0.96875v0.4375c0.13281-0.17578 0.28516-0.30469 0.45312-0.39062 0.16406-0.082031 0.34375-0.125 0.53125-0.125 0.34375 0 0.60156 0.10938 0.78125 0.32812 0.1875 0.21094 0.28125 0.51172 0.28125 0.90625z"/>
  </symbol>
  <symbol id="f" overflow="visible">
   <path d="m0.45312-4.1562h0.96875v2.2656l1.0938-1.0938h1.1094l-1.4531 1.3594 1.5625 1.625h-1.1562l-1.1562-1.25v1.25h-0.96875z"/>
  </symbol>
  <symbol id="s" overflow="visible">
   <path d="m0.45312-2.9844h0.96875v2.9844h-0.96875zm0-1.1719h0.96875v0.78125h-0.96875z"/>
  </symbol>
  <symbol id="r" overflow="visible">
   <path d="m2.4219-4.1562v0.625h-0.51562c-0.13672 0-0.23438 0.027344-0.29688 0.078125-0.054687 0.054687-0.078125 0.13672-0.078125 0.25v0.21875h0.82812v0.67188h-0.82812v2.3125h-0.95312v-2.3125h-0.46875v-0.67188h0.46875v-0.21875c0-0.32031 0.085937-0.5625 0.26562-0.71875 0.1875-0.15625 0.47266-0.23438 0.85938-0.23438z"/>
  </symbol>
  <symbol id="q" overflow="visible">
   <path d="m3.4688-1.8281v1.8281h-0.96875v-1.3906c0-0.25781-0.007812-0.4375-0.015625-0.53125-0.011719-0.10156-0.03125-0.17578-0.0625-0.21875-0.03125-0.0625-0.085937-0.10938-0.15625-0.14062-0.0625-0.039062-0.13281-0.0625-0.20312-0.0625-0.21094 0-0.37109 0.078125-0.48438 0.23438-0.10547 0.15625-0.15625 0.37109-0.15625 0.64062v1.4688h-0.96875v-4.1562h0.96875v1.6094c0.13281-0.17578 0.28516-0.30469 0.45312-0.39062 0.16406-0.082031 0.34375-0.125 0.53125-0.125 0.34375 0 0.60156 0.10938 0.78125 0.32812 0.1875 0.21094 0.28125 0.51172 0.28125 0.90625z"/>
  </symbol>
  <symbol id="p" overflow="visible">
   <path d="m0.5-3.9844h1.1562l1.4375 2.7344v-2.7344h0.98438v3.9844h-1.1562l-1.4375-2.7344v2.7344h-0.98438z"/>
  </symbol>
  <symbol id="o" overflow="visible">
   <path d="m0.42188-1.1719v-1.8125h0.96875v0.29688 0.60938 0.48438c0 0.24219 0.003906 0.41797 0.015625 0.53125 0.007812 0.10547 0.03125 0.17969 0.0625 0.21875 0.039062 0.0625 0.09375 0.11719 0.15625 0.15625 0.0625 0.03125 0.13281 0.046875 0.21875 0.046875 0.19531 0 0.35156-0.078125 0.46875-0.23438 0.11328-0.15625 0.17188-0.36719 0.17188-0.64062v-1.4688h0.95312v2.9844h-0.95312v-0.4375c-0.14844 0.17969-0.30469 0.30859-0.46875 0.39062-0.15625 0.082031-0.33594 0.125-0.53125 0.125-0.34375 0-0.60938-0.10156-0.79688-0.3125-0.17969-0.21875-0.26562-0.53125-0.26562-0.9375z"/>
  </symbol>
  <symbol id="n" overflow="visible">
   <path d="m0.5-3.9844h1.7031c0.50781 0 0.89844 0.11719 1.1719 0.34375 0.26953 0.21875 0.40625 0.53906 0.40625 0.95312 0 0.41797-0.13672 0.74219-0.40625 0.96875-0.27344 0.21875-0.66406 0.32812-1.1719 0.32812h-0.67188v1.3906h-1.0312zm1.0312 0.75v1.1094h0.5625c0.19531 0 0.34766-0.046875 0.45312-0.14062 0.11328-0.10156 0.17188-0.24219 0.17188-0.42188 0-0.17578-0.058594-0.3125-0.17188-0.40625-0.10547-0.09375-0.25781-0.14062-0.45312-0.14062z"/>
  </symbol>
  <symbol id="m" overflow="visible">
   <path d="m0.45312-2.9844h0.96875v2.9375c0 0.39453-0.10156 0.69531-0.29688 0.90625-0.1875 0.21875-0.46484 0.32812-0.82812 0.32812h-0.48438v-0.64062h0.17188c0.17578 0 0.29688-0.042969 0.35938-0.125 0.070312-0.074219 0.10938-0.23047 0.10938-0.46875zm0-1.1719h0.96875v0.78125h-0.96875z"/>
  </symbol>
  <symbol id="l" overflow="visible">
   <path d="m2.875-2.8906v0.76562c-0.125-0.082031-0.25781-0.14453-0.39062-0.1875-0.13672-0.039062-0.27344-0.0625-0.40625-0.0625-0.27344 0-0.48047 0.078125-0.625 0.23438-0.14844 0.15625-0.21875 0.37109-0.21875 0.64062 0 0.28125 0.070313 0.5 0.21875 0.65625 0.14453 0.15625 0.35156 0.23438 0.625 0.23438 0.14453 0 0.28516-0.019531 0.42188-0.0625 0.13281-0.039063 0.25781-0.10938 0.375-0.20312v0.78125c-0.14844 0.0625-0.29688 0.10156-0.45312 0.125-0.15625 0.03125-0.3125 0.046875-0.46875 0.046875-0.54297 0-0.96484-0.13281-1.2656-0.40625-0.30469-0.28125-0.45312-0.67188-0.45312-1.1719 0-0.48828 0.14844-0.86719 0.45312-1.1406 0.30078-0.28125 0.72266-0.42188 1.2656-0.42188 0.15625 0 0.3125 0.015625 0.46875 0.046875 0.15625 0.023437 0.30469 0.0625 0.45312 0.125z"/>
  </symbol>
 </defs>
 <g>
  <path d="m316.49 112.31c0-6.0508 3.5273-10.957 7.875-10.957 4.3477 0 7.875 4.9062 7.875 10.957s-3.5273 10.953-7.875 10.953c-4.3477 0.003906-7.875-4.9023-7.875-10.953zm63.266 10.406c4.3516 0 7.875-4.9062 7.875-10.953 0-6.0508-3.5273-10.957-7.875-10.957-4.3477 0-7.875 4.9062-7.875 10.957s3.5234 10.953 7.875 10.953zm-291.01 213.45c-4.2656-14.168 3.0469-33.773 16.297-43.699l0.042969-0.03125c9.1211-9.1406 28.09-24.297 56.398-45.062 6.8906-5.0547 14.297-10.41 22.008-15.914v-0.003907c4.1211-2.9375 8.4766-5.5312 13.027-7.7461 0.52344-0.26563 1.1289-0.30859 1.6836-0.12109s1.0117 0.58594 1.2695 1.1133c0.25781 0.52734 0.29297 1.1328 0.097656 1.6836-0.19531 0.55469-0.60156 1.0039-1.1328 1.2539-4.332 2.1133-8.4805 4.582-12.402 7.3789-7.0117 5.0039-13.77 9.8789-20.113 14.52l35.469 43.324 3.1719 3.8789c10.809-7.8281 22.664-16.723 35.27-26.457v0.003906c0.65625-0.50781 1.5469-0.60156 2.293-0.23828s1.2266 1.1172 1.2344 1.9453l0.28125 27.492 36.488-7.1211 5.8711-10.719 14.781-59.879-60.242-3.0195c-10.91-0.39844-21.797 1.2148-32.121 4.7656-1.1406 0.39453-2.3867-0.21484-2.7773-1.3555-0.39453-1.1445 0.21484-2.3867 1.3555-2.7812 10.84-3.7266 22.273-5.4258 33.73-5.0039l65.477 3.2812c0.13672 0.007812 0.27344 0.027344 0.40625 0.058594l11.41 0.57812v-12.32c-8.5195-5.9609-13.926-14.27-17.336-22.656-4.8398-8.9922-7.5039-18.988-7.7891-29.195-0.26562-7.9844-0.46484-19.047-0.60547-29.398-1.8984-0.18359-3.7422-0.75-5.418-1.6602-4.8672-2.7539-8.6836-7.043-10.848-12.199-2.8203-6.582-3.1719-13.965-0.98438-20.785 1.3555-4.5312 3.7617-7.2773 7.1562-8.1602 3.4688-0.90625 7.2188 0.42188 10.336 2.1797 0.027344-0.26562 0.058594-0.52344 0.085938-0.78906-0.62891-8.6211-1.1211-23.086 1.5664-32.578 1.5156-5.3594 6.4805-9.2344 11.445-11.879l-0.003906 0.003907c-2.6992-3.9102-4.8906-8.1484-6.5273-12.605 0 0 66.961-16.406 88.836-2.3164 4.2773 2.6055 6.6875 7.4258 6.2109 12.41 6.418 1.4492 15.047 4.6094 18.012 11.363 3.8008 8.6562 2.8125 28.07 2.1562 36.543 1.9961-0.54688 4.1133-0.46484 6.0625 0.23438 2.9062 1.1289 5.0039 3.7734 6.2266 7.8594 2.9297 9.793 1.2031 19.641-4.7539 27.016-2.2656 2.918-5.2305 5.2188-8.6172 6.6914-0.046875 2.0469-0.097657 4.0977-0.14844 6.1328-0.050781 5.5703-0.085937 11.637-0.085937 18.406v0.003906c0.015625 4.9922-0.44141 9.9727-1.3633 14.875-1.4219 11.52-4.1914 26.469-17.926 36.891l-0.59766 19.449 17.043 1.0547h0.003906c0.21875 0.015625 0.4375 0.0625 0.64453 0.14453l45.594 2.3047c28.906 2.1055 54.816 17.773 69.352 41.906 6.3906 10.609 14.383 23.695 24.43 39.992 7.0703 11.473 14.207 22.996 20.801 33.637 12.457 20.113 23.219 37.484 27.547 44.863 14.074 24 17.805 47.203 9.9805 62.07-5.3203 10.105-15.91 16-30.625 17.051-2.5469 0.17969-5.4844 0.35938-8.7344 0.53125v0.003907c-0.58594 0.039062-1.1602-0.15625-1.6016-0.54688-0.4375-0.38672-0.70312-0.9375-0.73438-1.5195-0.027344-0.58594 0.17578-1.1602 0.57031-1.5938 0.39844-0.42969 0.94922-0.6875 1.5352-0.70703 3.2227-0.16797 6.1328-0.34766 8.6523-0.52734 13.316-0.94922 22.422-5.9062 27.066-14.723 7.0117-13.316 3.2227-35.473-9.8828-57.82-4.3047-7.3359-15.051-24.684-27.492-44.773-6.2109-10.023-12.906-20.832-19.57-31.641l-21.32 15.406-26.578 19.211 42.637 59.828h0.003907c0.42969 0.60937 0.52344 1.3945 0.24609 2.0859-0.27734 0.69141-0.88672 1.1914-1.6172 1.332l-86.992 16.625-4.5547 0.875h-0.003907c-0.13281 0.027344-0.27344 0.039063-0.41016 0.039063-0.10547 0-0.21484-0.011719-0.32031-0.03125-0.035156 0-0.070313 0-0.10938-0.011719l-0.089844-0.015625c-0.49219-0.097656-0.96484-0.1875-1.4492-0.28516-1.5859-0.30469-4.293-0.81641-7.6211-1.3984-0.011718 0-0.019531-0.007812-0.027343-0.011719v0.003907c-0.12109-0.023438-0.24219-0.054688-0.35547-0.097657-3.625-0.64062-7.0586-1.1953-10.281-1.6641-0.023438 0-0.042969 0.007812-0.0625 0.007812h-0.097656c-0.26172 0-0.52344-0.050781-0.76562-0.14453-15.031-2.1484-25.109-2.4141-27.277-1.1406 0.74219 2.5352 9.8828 6.9297 14.887 9.3359 8.5938 4.1289 14.391 6.9258 13.84 10.812 0 0.042968 0 0.082031-0.007813 0.125-0.019531 0.11719-0.050781 0.23047-0.082031 0.34375-0.011719 0.039062-0.011719 0.074218-0.023438 0.10938 0 0.015625-0.011718 0.03125-0.015625 0.046875v0.019531l-0.007812 0.011719c-1.0547 3.2656-6.582 3.7461-29.195 4.3594-9.4375 0.25391-19.199 0.51562-27.09 1.3242v-0.003907c-3.5547 0.26562-7.0742 0.89062-10.504 1.8672l-0.019531 0.011719c-2.0781 0.6875-2.5898 1.2891-2.6797 1.4219 0.039062 0.18359 0.45312 1.2656 4.1484 2.8438l0.058594 0.023438c0.26562 0.10938 0.54688 0.22656 0.84766 0.34375l0.25 0.09375c0.25781 0.097656 0.51172 0.19531 0.79297 0.29688 0.375 0.13281 0.76562 0.26953 1.1875 0.41016l0.066406 0.023438c0.29297 0.097656 0.59766 0.19531 0.92188 0.29688l0.19922 0.0625c0.28906 0.089844 0.58984 0.17969 0.89844 0.26953l0.32812 0.097656c0.28516 0.082031 0.57031 0.16406 0.875 0.24609l0.47266 0.12891c0.27734 0.074219 0.55469 0.14844 0.84375 0.22656 0.19531 0.050781 0.40234 0.10547 0.60547 0.15625 0.27344 0.070312 0.54688 0.14062 0.83594 0.21094 0.23828 0.058594 0.48828 0.12109 0.73828 0.17969 0.26953 0.066406 0.53516 0.12891 0.81641 0.19531 0.27734 0.066407 0.59375 0.13672 0.89453 0.20312l0.78906 0.17969c0.34375 0.074218 0.69922 0.15234 1.0586 0.23047 0.25 0.054688 0.49609 0.10938 0.75391 0.16016 0.40625 0.085937 0.83594 0.17188 1.2617 0.25781l0.67578 0.13672c0.51953 0.10156 1.0586 0.20703 1.6016 0.30859l0.46875 0.089844c1.4492 0.26953 2.9922 0.54687 4.6367 0.82031 5.7734 0.96875 11.594 1.7578 16.5 2.3516l0.4375 0.050782c1.4688 0.17578 2.8672 0.33984 4.1367 0.48047l0.80469 0.089844 0.21875 0.023438 0.22656 0.023437 1 0.10938 0.92578 0.097656 0.68359 0.070313 0.53125 0.054687c1.9961 0.20313 3.3125 0.32031 3.6719 0.35547h0.015625c3.7344-0.023437 92.035-0.60156 141.46-2.5859h-0.003907c1.207-0.046875 2.2266 0.89062 2.2734 2.1016 0.046875 1.207-0.89062 2.2266-2.1016 2.2734-29.023 1.1641-71.414 1.8438-102.27 2.2148-0.28516 21.473-0.53516 38.594-0.74609 50.883-0.12109 7.0938-0.23438 12.957-0.33594 17.062-0.18359 7.5078-0.18359 7.5078-1.1719 8.2148h0.003906c-0.51562 0.37109-1.168 0.5-1.7852 0.35547-6.0039-0.83203-152.31-0.23828-208.31 0.058594h-0.015625c-1.2031 0-2.1836-0.97266-2.1875-2.1797l-0.75-158.05-9.7812-9.3438c-6.168-5.5508-8.9258-12.707-7.5781-19.262-6.9258-0.91797-11.414-6.0859-13.141-8.4805-11.102 1.0508-84.051 7.9102-93.422 7.3555-14.27-0.83984-23.969-7.4336-27.316-18.566zm144.43 35.742 10.5 10.031 28.449 27.176h-0.003906c0.48438 0.45312 1 0.86328 1.5469 1.2383 2.4375 1.6797 5.3633 2.5 8.3203 2.3281h0.066407c3.625-0.21484 6.9922-1.9336 9.2969-4.7383l46.398-52.289c0.33594-0.37891 0.79688-0.62891 1.3008-0.71094l17.199-2.6875-5.4219-6.5625v-0.007812l-35.234-42.656-2.332 1.2891v0.003907c1.1953 1.8203 1.8203 3.957 1.7891 6.1367-0.60547 32.445-4.3438 33.016-6.3516 33.32-3.8789 0.59375-7.3086-1.4727-9.6719-5.8086-1.0273-1.9336-1.7852-3.9961-2.2578-6.1289-0.023437-0.10938-0.035156-0.21875-0.039062-0.32812l-0.69531-14.699-2.9766-1.332-0.29297 0.16406c1.2383 9.7031 3.2539 30.094-0.82812 35.34-4.2305 5.4336-25.016 22.004-38.75 22.004-0.24219 0-0.48047-0.003907-0.71484-0.015626-1.4102-0.0625-5.5781-0.24219-7.0195-21.961-4.1016 1.6055-11.812 4.3164-18.336 4.8945-1.5156 5.2695 0.67969 11.164 6.0586 16zm197.59 47.359c2.8711 0.4375 5.6562 0.89844 8.2188 1.3438 5.1406-6.8711 7.6406-15.332 6.3828-21.883-0.058593-0.29688-0.125-0.60547-0.20703-0.92578-0.60547-2.7266-2.3047-5.0859-4.7031-6.5195-1.3555-0.79688-2.8789-1.2656-4.4453-1.3594-2.7344-0.12109-5.332 1.1523-7.7852 3.8281-0.70312 0.78125-1.3516 1.6094-1.9414 2.4766 0.69531 2.0664 1.3164 4.1641 1.8594 6.2852 4.0898-4.7148 9.1914-8.3984 11.406-1.1055 2.25 7.4531-3.4492 13.664-8.7969 17.648 0.003906 0.066406 0.007812 0.13672 0.011719 0.20703zm-66.434-21.629 0.40625-11.387c-16.473 5.625-26.27 11.844-29.125 18.508v0.003906c-0.75391 1.7227-1.0117 3.6211-0.75391 5.4844 0.046875 0.35156 0.10938 0.70703 0.19141 1.0664 0 0.019532 0.011719 0.039063 0.015625 0.058594 0.078125 0.33984 0.16797 0.67969 0.27734 1.0273 0.023437 0.074218 0.054687 0.15234 0.082031 0.22656 0.097656 0.29297 0.19531 0.58594 0.31641 0.88281 0.042969 0.10938 0.097657 0.21875 0.14062 0.32031 0.11719 0.27734 0.23438 0.55859 0.37109 0.83984 0.25391 0.48047 0.65234 0.87109 1.1406 1.1172 3.1641-6.543 12.207-12.633 26.938-18.148zm15.16-4.9219c16.148-4.6328 28.73-6.5234 36.691-5.5234 0.023437-0.058593 0.050781-0.10937 0.070312-0.17187l-0.003906 0.003906c0.33594-0.80859 0.39453-1.7031 0.16016-2.5469-0.1875-0.34375-0.37109-0.69141-0.5625-1.0312h0.003906c-1.2188-1.6719-2.8672-2.9844-4.7734-3.793-4.9297-2.1445-13.773-2.4609-31.289 2.0977zm-58.008-169.87-12.516 57.324 87.785 0.74609-7.7812-54.648zm104.86 195.78h0.003906c-0.53516-7.4609-2.0469-14.824-4.5-21.891-0.015625-0.035157-0.039063-0.066407-0.054688-0.10156-0.69531-1.9844-1.4727-3.9531-2.3242-5.8945-0.12891 0.21875-0.29688 0.41797-0.49219 0.57812-5.957 9.3945-24.391 19.031-39.871 23.137-5.2109 1.3828-9.3867 2.4414-13.152 3.3203-0.57031 0.14453-1.1719 0.054688-1.6758-0.25-0.5-0.30469-0.85547-0.79688-0.99219-1.3711-0.13281-0.57031-0.03125-1.1719 0.28125-1.668 0.31641-0.49609 0.81641-0.84375 1.3867-0.96875 3.7188-0.875 7.8594-1.918 13.027-3.2891 14.559-3.8672 29.242-11.891 35.492-18.883-6.0469-0.30859-16.434 0.79688-34.102 5.9688l-0.15234 5.6211c-0.03125 1.1836-1.0039 2.1289-2.1875 2.125h-0.0625c-1.207-0.03125-2.1602-1.0391-2.125-2.2461l0.91016-33.359c0.097656-4.707-1.3867-9.3086-4.2188-13.07-2.832-3.7617-6.8438-6.4609-11.395-7.6641l-1.4883-0.42187 3.3516 4.0547h-0.003906c2.4062 2.3438 4.3281 5.1406 5.6484 8.2305 0.042969 0.10156 0.09375 0.19922 0.13281 0.30078 0.015624 0.035156 0.027343 0.074219 0.042968 0.10938 1.3047 3.1875 1.9297 6.6172 1.8359 10.062l-1 28.152v0.14062l-0.23438 6.5625c-0.042969 1.1797-1.0078 2.1133-2.1875 2.1094h-0.078125c-1.207-0.042969-2.1523-1.0547-2.1094-2.2617l0.12109-3.3672c-14.16 5.5-20.086 10.578-22.379 14.426 2.9961 0.1875 7.543-0.125 14.426-1.4219h-0.003907c0.57812-0.12109 1.1797-0.007813 1.668 0.32031 0.49219 0.32422 0.82812 0.83594 0.9375 1.4141s-0.019531 1.1797-0.35938 1.6602c-0.33594 0.48438-0.85547 0.80859-1.4375 0.90234-4.4688 0.92188-9.0156 1.4414-13.578 1.5469-1.5352 0.015625-3.0664-0.11719-4.5781-0.38672 1.8047 3.5039 3.9414 6.8281 6.3906 9.918v0.007812c0.33594 0.42578 0.67969 0.85156 1.0391 1.2852l0.011719 0.011719c0.47656 0.57422 0.96875 1.1484 1.4883 1.7305h-0.003906c4.1875 4.6836 8.9844 8.7891 14.258 12.207 6.9414-1.9805 19.391-2.5977 37.859-3.0977 9.3867-0.25391 20.824-0.5625 24.559-1.5586-1.8203-1.6211-7.1406-4.1758-10.836-5.9531-8.957-4.3047-17.414-8.3672-17.414-13.594l-0.003907 0.003906c0.007813-1.1406 0.53906-2.2148 1.4375-2.9141 3.4922-2.8555 16.316-1.9688 28.699-0.27734zm68.625-71.727-37.129-52.102c-0.34766 24.895-0.80859 50.422-1.3789 76.004 0 0-0.24609 22.082-0.58984 50.41l81.016-15.488zm-82.367-119.43 9.2188 62.133 30.488 71.043c0.51562-24.484 0.9375-48.855 1.25-72.586v-0.003906c0.011719-0.94531 0.63281-1.7773 1.5352-2.0586 0.90234-0.28125 1.8867 0.046875 2.4336 0.82031l39.727 55.75 41.391-29.914 6.7461-4.875c-9.5547-15.512-17.215-28.055-23.387-38.301-13.805-22.922-38.43-37.801-65.875-39.797zm-98.176-158.57c-4.25 8.1914-10.793 12.609-13.914 20.57l12.172 55.613c4.1094-4.0508 9.6523-6.3086 15.422-6.2891h11.797l3.7188-21.102c0.21094-1.1914 1.3438-1.9844 2.5352-1.7734 1.1875 0.20703 1.9844 1.3438 1.7734 2.5312l-3.5859 20.344h26.555c4.4414-0.042969 8.7891 1.293 12.441 3.8242 3.6523 2.5273 6.4297 6.1289 7.9492 10.305l14.414-64.895c-4.2227-9.6133-10.996-19.578-14.672-27.879h0.003906c-1.3125-2.9219-2.4297-5.9297-3.3477-9.0039-5.4023 5.875-16.602 12.797-39.215 11.922h0.003906c-10.141-0.25391-19.984-3.4727-28.316-9.2617-1.2461 5.2578-3.1758 10.332-5.7344 15.094zm26.52 86.965c5.6836 0.48047 11.395 0.46875 17.078-0.023438-4.125-2.7227-7.1484-6.8281-8.5234-11.578-1.3789 4.7617-4.4141 8.875-8.5547 11.598zm-25.098 3.6797 1.0156 4.6328v0.003906c1.2891 5.5547 5.9492 9.6914 11.621 10.312 5.543 0.67578 11.359-3.1641 14.051-7.8828l14.848-0.17188-0.003906 0.003907c3.9609 5.1211 10.316 7.793 16.746 7.0352 3.7109-0.37109 7.2109-1.8906 10.016-4.3516 2.8047-2.457 4.7695-5.7266 5.625-9.3555l0.050782-0.21875h-19.547c-1.582-0.007813-3.1562-0.17969-4.7031-0.51562-0.046875 0.015625-0.09375 0.039062-0.14062 0.050781v-0.003906c-5.1406 1.0898-10.387 1.6016-15.641 1.5312-5.2422-0.003906-10.48-0.35938-15.676-1.0625-0.37109-0.058594-0.71875-0.21094-1.0156-0.44531-1.4336 0.28906-2.8945 0.4375-4.3594 0.44531zm98.102-70.629c-0.042968 2.9414-0.26172 16.906-0.59766 32.191 1.957-1.1836 3.6836-2.707 5.1016-4.5039 2.3789-2.9531 7.5312-11.098 3.9648-23.012-0.81641-2.7266-2.0352-4.4219-3.6172-5.0352-1.6094-0.46484-3.3281-0.33594-4.8516 0.35938zm-121.71 31.398c-0.16406-13.297-0.23438-24.414-0.23438-24.621v-0.011719c0-2.2773 0.070312-4.4844 0.18359-6.6602-2.3555-1.5859-5.1914-3.0312-7.5977-3.0312h-0.003907c-0.43359-0.003906-0.86328 0.046875-1.2812 0.15625-1.8086 0.47266-3.1758 2.2148-4.0625 5.1797-2.2734 7.6016-1.6602 21.887 9.6758 27.859h-0.003906c1.0391 0.55859 2.1602 0.94141 3.3242 1.1289zm30.16 88.344v9.8516l66.34 3.3672 0.50781-16.543c-8.2266 4.8398-19.59 8.2734-35.398 9.2266-13.215 0.79297-23.48-1.6133-31.449-5.9023zm-113.33 90.227 28.043 1.875 2.1797-0.42578-0.24609-23.91c-10.617 8.1562-20.668 15.688-29.977 22.461zm-116.13 36.016c2.8203 9.375 10.902 14.723 23.379 15.457 9.6016 0.57812 93.207-7.3867 94.051-7.4688 0.85156-0.078125 1.668 0.33984 2.0977 1.0781 0.042968 0.070313 4.6211 7.6641 12.297 7.6641 0.21875 0 0.4375-0.007813 0.65625-0.011719h0.14063c8.5195-0.33203 20.891-5.7578 21.016-5.8125v-0.003906c0.65625-0.28906 1.418-0.23828 2.0312 0.14062 0.61328 0.37891 1 1.0352 1.0352 1.7539 0.48828 9.75 2.0273 19.074 3.4141 20.902h0.16406c3.5703-0.19141 7.0625-1.0898 10.281-2.6367 1.6484-11.035-3.6016-30.508-3.6562-30.707-0.15234-0.55859-0.074219-1.1562 0.21094-1.6602 0.28906-0.50391 0.76562-0.875 1.3242-1.0273 1.168-0.31641 2.3711 0.37109 2.6875 1.5352 0.21875 0.78906 4.7422 17.594 4.0469 29.598 3.168-1.7305 6.2266-3.6484 9.1641-5.7461 1.0391-10.465-3.1992-29.715-3.2422-29.91-0.125-0.56641-0.019531-1.1602 0.28906-1.6484 0.3125-0.48828 0.80469-0.83594 1.3711-0.96094 1.1797-0.26172 2.3477 0.48047 2.6094 1.6602 0.16406 0.73047 3.5625 16.188 3.5039 27.438l0.003906 0.003907c2.4258-1.8555 4.6602-3.9492 6.6641-6.2539 2.5469-3.2734 1.4609-20.672-0.24219-33.492-0.007813-0.0625-0.015625-0.12109-0.023438-0.18359-0.11719-0.88281-0.23828-1.75-0.35938-2.5781-0.11719-0.78906 0.20703-1.582 0.84375-2.0664 0.64062-0.48047 1.4922-0.57812 2.2188-0.25l8.1328 3.6445 0.003906 0.003907c0.75 0.33594 1.25 1.0664 1.2891 1.8906l0.75 15.852c0.26562 1.1133 2.2305 8.5898 6.5586 8.3789 1.2617-1.9609 2.707-11.66 3.0312-29.117l-0.003906 0.003906c0.019531-1.8281-0.71875-3.582-2.0391-4.8438l-9.625-9.2734c-1.7188-1.6289-4.125-2.3242-6.4453-1.8594l-54.906 10.719c-0.1875 0.039062-0.37891 0.050781-0.56641 0.039062l-32.758-2.1875-58.219-3.8906v-0.003906c-0.58203-0.035157-1.125-0.30078-1.5117-0.73828-0.38281-0.43359-0.57812-1.0078-0.53906-1.5898 0.039062-0.58203 0.30859-1.1211 0.74609-1.5039 0.44141-0.38281 1.0156-0.57422 1.5977-0.53125l53.781 3.5938-37.793-46.172c-27.082 19.91-45.887 34.977-54.449 43.629-0.15625 0.15234-0.33203 0.28516-0.52734 0.39062-11.742 8.9688-18.234 26.285-14.484 38.754z"/>
  <use x="70" y="576.40625" xlink:href="#t"/>
  <use x="74.011719" y="576.40625" xlink:href="#d"/>
  <use x="76.710938" y="576.40625" xlink:href="#a"/>
  <use x="80.417969" y="576.40625" xlink:href="#k"/>
  <use x="84.109375" y="576.40625" xlink:href="#c"/>
  <use x="86.722656" y="576.40625" xlink:href="#a"/>
  <use x="90.433594" y="576.40625" xlink:href="#j"/>
  <use x="96.25" y="576.40625" xlink:href="#i"/>
  <use x="100.167969" y="576.40625" xlink:href="#h"/>
  <use x="105.636719" y="576.40625" xlink:href="#e"/>
  <use x="111.332031" y="576.40625" xlink:href="#b"/>
  <use x="115.089844" y="576.40625" xlink:href="#g"/>
  <use x="118.984375" y="576.40625" xlink:href="#f"/>
  <use x="122.621094" y="576.40625" xlink:href="#s"/>
  <use x="124.496094" y="576.40625" xlink:href="#f"/>
  <use x="70" y="581.875" xlink:href="#r"/>
  <use x="72.378906" y="581.875" xlink:href="#d"/>
  <use x="75.078125" y="581.875" xlink:href="#b"/>
  <use x="78.832031" y="581.875" xlink:href="#e"/>
  <use x="86.4375" y="581.875" xlink:href="#c"/>
  <use x="89.050781" y="581.875" xlink:href="#q"/>
  <use x="92.941406" y="581.875" xlink:href="#a"/>
  <use x="98.554688" y="581.875" xlink:href="#p"/>
  <use x="103.132812" y="581.875" xlink:href="#b"/>
  <use x="106.890625" y="581.875" xlink:href="#o"/>
  <use x="110.785156" y="581.875" xlink:href="#g"/>
  <use x="116.582031" y="581.875" xlink:href="#n"/>
  <use x="120.589844" y="581.875" xlink:href="#d"/>
  <use x="123.285156" y="581.875" xlink:href="#b"/>
  <use x="127.042969" y="581.875" xlink:href="#m"/>
  <use x="128.917969" y="581.875" xlink:href="#a"/>
  <use x="132.625" y="581.875" xlink:href="#l"/>
  <use x="135.867188" y="581.875" xlink:href="#c"/>
 </g>
</svg>
